# xmcd
#
# Track frame offsets: 
#        150
#        18455
#        36610
#        55590
#        71944
#        86648
#        104128
#        119582
#        134737
#        154466
#
# Disc length: 2310 seconds
#
# Revision: 0
# Processed by: cddbd v1.5.1PL2 Copyright (c) Steve Scherf et al.
# Submitted via: ExactAudioCopy v0.95b3
#
DISCID=9f09040a
DTITLE=blues boys - la noche
DYEAR=2002
DGENRE=blues
TTITLE0=la carta
TTITLE1=la soledad
TTITLE2=una explicación
TTITLE3=quiéreme
TTITLE4=la noche
TTITLE5=¿qué voy a hacer?
TTITLE6=ya no maten la paz
TTITLE7=desnúdate
TTITLE8=yo la recuerdo
TTITLE9=la carta (acústica)
EXTD=
EXTT0=
EXTT1=
EXTT2=
EXTT3=
EXTT4=
EXTT5=
EXTT6=
EXTT7=
EXTT8=
EXTT9=
PLAYORDER=
